/* XPM */
static char *d1a6cfa81ffb4dfb8bb7a6128c7339fbflUhHD3whbEUY4qU[] = {
/* columns rows colors chars-per-pixel */
"32 32 4 1 ",
"  c black",
". c #FC9838",
"X c #FFB27F",
"o c #FCBCB0",
/* pixels */
"X                              X",
"                                ",
"  oooooooooooooooooooooooooooo  ",
"  oooooooooooooooooooooooooooo  ",
"  oo  ....................  ..  ",
"  oo  ....................  ..  ",
"  oo....oooooooooooooo........  ",
"  oo....oooooooooooooo........  ",
"  oo..oooooooooooooooooo......  ",
"  oo..oooooooooooooooooo......  ",
"  oo..oooooo      oooooo  ....  ",
"  oo..oooooo      oooooo  ....  ",
"  oo....      ....oooooo  ....  ",
"  oo....      ....oooooo  ....  ",
"  oo........oooooooooo    ....  ",
"  oo........oooooooooo    ....  ",
"  oo........oooooo      ......  ",
"  oo........oooooo      ......  ",
"  oo..........      ..........  ",
"  oo..........      ..........  ",
"  oo........oooooo............  ",
"  oo........oooooo............  ",
"  oo........oooooo  ..........  ",
"  oo........oooooo  ..........  ",
"  oo..........      ..........  ",
"  oo..........      ..........  ",
"  oo  ....................  ..  ",
"  oo  ....................  ..  ",
"  oo..........................  ",
"  oo..........................  ",
"                                ",
"X                              X"
};
