/* XPM */
static char *_70ce108cd5f4d70a93d61904030a4e1JNZwjJnWpVNhtAxY[] = {
/* columns rows colors chars-per-pixel */
"32 32 4 1 ",
"  c black",
". c #FC9838",
"X c #FFB27F",
"o c #FCBCB0",
/* pixels */
"X                              X",
"                                ",
"  oooo  oooooooooooooooo  oooo  ",
"  oooo  oooooooooooooooo  oooo  ",
"  oooo  oo............oo  oooo  ",
"  oooo  oo............oo  oooo  ",
"  oooo  oo............oo  oooo  ",
"  oooo  oo............oo  oooo  ",
"  oooo  oo............oo  oooo  ",
"  oooo  oo............oo  oooo  ",
"  oooo  oo............oo  oooo  ",
"  oooo  oo............oo  oooo  ",
"  oooo  oo............oo  oooo  ",
"  oooo  oooooooooooooooo  oooo  ",
"  oooo  oooooooooooooooo  oooo  ",
"                                ",
"                                ",
"  oooooooooo  oooo  oooooooooo  ",
"  oooooooooo  oooo  oooooooooo  ",
"  oo......oo  oooo  oo......oo  ",
"  oo......oo  oooo  oo......oo  ",
"  oo......oo  oooo  oo......oo  ",
"  oo......oo  oooo  oo......oo  ",
"  oo......oo  oooo  oo......oo  ",
"  oo......oo  oooo  oo......oo  ",
"  oo......oo  oooo  oo......oo  ",
"  oo......oo  oooo  oo......oo  ",
"  oo......oo  oooo  oo......oo  ",
"  oooooooooo  oooo  oooooooooo  ",
"  oooooooooo  oooo  oooooooooo  ",
"                                ",
"X                              X"
};
